<svg viewBox="0 0 24 24" xmlns="http://www.w3.org/2000/svg" fill="none">
  <path d="M12 2C6.47656 2 2 6.47656 2 12C2 17.5234 6.47656 22 12 22C17.5234 22 22 17.5234 22 12C22 6.47656 17.5234 2 12 2ZM18.2422 18.2383C17.4297 19.0508 16.4883 19.6875 15.4375 20.1289C14.3516 20.5898 13.1953 20.8203 12 20.8203C10.8086 20.8203 9.65234 20.5859 8.5625 20.1289C7.51172 19.6836 6.56641 19.0469 5.75781 18.2383C4.94531 17.4258 4.30859 16.4844 3.86719 15.4336C3.40625 14.3477 3.17188 13.1914 3.17188 12C3.17188 10.8086 3.40625 9.65234 3.86328 8.5625C4.30859 7.51172 4.94531 6.56641 5.75391 5.75781C6.57031 4.94531 7.51172 4.30859 8.5625 3.86328C9.65234 3.40625 10.8086 3.17188 12 3.17188C13.1914 3.17188 14.3477 3.40625 15.4375 3.86328C16.4883 4.30859 17.4336 4.94531 18.2422 5.75391C19.0547 6.56641 19.6914 7.50781 20.1328 8.55859C20.5938 9.64453 20.8242 10.8008 20.8242 11.9961C20.8242 13.1875 20.5898 14.3438 20.1328 15.4336C19.6875 16.4844 19.0508 17.4297 18.2422 18.2383Z" fill="currentColor"></path>
  <path d="M16.0391 9.12109H13.3906V9.89062H16.0391V9.12109Z" fill="currentColor"></path>
  <path d="M16.5938 11.2108C16.3867 10.9023 16.125 10.6757 15.8047 10.5351C15.4883 10.3905 15.1289 10.3202 14.7266 10.3241C14.0586 10.3241 13.5156 10.5351 13.0938 10.9569C12.6758 11.3788 12.4648 11.9843 12.4648 12.7773C12.4648 13.621 12.6992 14.2304 13.1641 14.6054C13.6289 14.9804 14.1641 15.1679 14.7734 15.1679C15.5117 15.1679 16.082 14.9452 16.4922 14.4999C16.7539 14.2187 16.9023 13.9413 16.9336 13.6718H15.7148C15.6445 13.8085 15.5625 13.914 15.4687 13.9882C15.2969 14.1288 15.0742 14.1991 14.8047 14.1991C14.5469 14.1991 14.3281 14.1405 14.1445 14.0273C13.8438 13.8437 13.6875 13.5194 13.668 13.0624H16.9961C17.0039 12.6679 16.9883 12.3671 16.957 12.1562C16.9023 11.7968 16.7813 11.4804 16.5938 11.2108ZM13.6992 12.2733C13.7461 11.9765 13.8516 11.7421 14.0195 11.5663C14.1875 11.3944 14.4258 11.3046 14.7305 11.3046C15.0117 11.3046 15.25 11.3866 15.4414 11.5507C15.6289 11.7148 15.7344 11.9569 15.7578 12.2733H13.6992Z" fill="currentColor"></path>
  <path d="M11.1133 11.699C11.3203 11.5935 11.4805 11.4763 11.5859 11.3474C11.7773 11.1169 11.8711 10.8123 11.8711 10.4373C11.8711 10.0701 11.7773 9.75366 11.5898 9.49194C11.2734 9.06226 10.7383 8.84351 9.98828 8.83179H7V15.0154H9.78125C10.0977 15.0154 10.3867 14.988 10.6563 14.9334C10.9258 14.8748 11.1602 14.7732 11.3555 14.6209C11.5312 14.4919 11.6758 14.3279 11.793 14.1365C11.9805 13.8474 12.0703 13.5193 12.0703 13.1521C12.0703 12.7966 11.9883 12.4958 11.8281 12.2458C11.668 11.9958 11.4297 11.8162 11.1133 11.699ZM8.23047 9.90601H9.57422C9.87109 9.90601 10.1133 9.94116 10.3047 10.0037C10.5273 10.0974 10.6367 10.2849 10.6367 10.574C10.6367 10.8318 10.5547 11.0154 10.3867 11.1169C10.2187 11.2185 10.0039 11.2693 9.73438 11.2693H8.23047V9.90601ZM10.3594 13.8279C10.2109 13.9021 10.0039 13.9373 9.73438 13.9373H8.23047V12.2888H9.75391C10.0195 12.2927 10.2227 12.3279 10.3711 12.3943C10.6367 12.5154 10.7656 12.738 10.7656 13.0584C10.7656 13.4373 10.6328 13.6912 10.3594 13.8279Z" fill="currentColor"></path>
</svg>
