<svg viewBox="0 0 24 24" fill="none" xmlns="http://www.w3.org/2000/svg">
  <path fill-rule="evenodd" clip-rule="evenodd" d="M14.9943 4.27979H8.56574C6.19881 4.27979 4.28003 6.19856 4.28003 8.5655V14.9941C4.28003 17.361 6.19881 19.2798 8.56574 19.2798H14.9943C17.3612 19.2798 19.28 17.361 19.28 14.9941V8.5655C19.28 6.19856 17.3612 4.27979 14.9943 4.27979Z" stroke="currentColor" stroke-linecap="round" stroke-linejoin="round"></path>
  <path fill-rule="evenodd" clip-rule="evenodd" d="M11.78 15.2798C9.84698 15.2798 8.28003 13.7128 8.28003 11.7798C8.28003 9.84674 9.84698 8.27979 11.78 8.27979C13.7131 8.27979 15.28 9.84674 15.28 11.7798C15.28 12.708 14.9112 13.5983 14.2549 14.2546C13.5985 14.911 12.7082 15.2798 11.78 15.2798Z" stroke="currentColor" stroke-linecap="round" stroke-linejoin="round"></path>
  <path d="M16.28 6.27979C15.7277 6.27979 15.28 6.7275 15.28 7.27979C15.28 7.83207 15.7277 8.27979 16.28 8.27979C16.8323 8.27979 17.28 7.83207 17.28 7.27979C17.28 6.7275 16.8323 6.27979 16.28 6.27979Z" fill="currentColor"></path>
</svg>
