<svg viewBox="0 0 16 16" fill="none" xmlns="http://www.w3.org/2000/svg">
  <g clip-path="url(#clip0_2045_15)">
    <path d="M2.02647 12.4804L2.50349 12.7189L2.65103 12.4239L2.45288 12.1601L2.02647 12.4804ZM3.51958 13.9735L3.83992 13.5471L3.57614 13.349L3.28106 13.4965L3.51958 13.9735ZM0.533348 15.4667L0.0563202 15.2282C-0.0463435 15.4335 -0.00610108 15.6815 0.156225 15.8438C0.31855 16.0061 0.566535 16.0464 0.771862 15.9437L0.533348 15.4667ZM4.80001 4.8L4.50417 4.35624C4.3558 4.45516 4.26668 4.62168 4.26668 4.8H4.80001ZM11.2 11.2V11.7333C11.3784 11.7333 11.5449 11.6442 11.6437 11.4959L11.2 11.2ZM1.47015e-05 8C1.47015e-05 9.80057 0.595499 11.4636 1.60005 12.8007L2.45288 12.1601C1.58233 11.0013 1.06668 9.56163 1.06668 8H1.47015e-05ZM8.00001 0C3.58173 0 1.47015e-05 3.58172 1.47015e-05 8H1.06668C1.06668 4.17083 4.17084 1.06667 8.00001 1.06667V0ZM16 8C16 3.58172 12.4183 0 8.00001 0V1.06667C11.8292 1.06667 14.9333 4.17083 14.9333 8H16ZM8.00001 16C12.4183 16 16 12.4182 16 8H14.9333C14.9333 11.8292 11.8292 14.9333 8.00001 14.9333V16ZM3.19924 14.4C4.53643 15.4045 6.19945 16 8.00001 16V14.9333C6.43838 14.9333 4.99872 14.4177 3.83992 13.5471L3.19924 14.4ZM0.771862 15.9437L3.75809 14.4506L3.28106 13.4965L0.294834 14.9897L0.771862 15.9437ZM1.54943 12.2419L0.0563202 15.2282L1.01038 15.7052L2.50349 12.7189L1.54943 12.2419ZM4.26668 4.8V5.86667H5.33335V4.8H4.26668ZM10.1333 11.7333H11.2V10.6667H10.1333V11.7333ZM4.26668 5.86667C4.26668 9.10674 6.89327 11.7333 10.1333 11.7333V10.6667C7.48238 10.6667 5.33335 8.51763 5.33335 5.86667H4.26668ZM5.09585 5.24377L5.32323 5.09218L4.73155 4.20466L4.50417 4.35624L5.09585 5.24377ZM6.14515 5.44826L6.29389 6.3407L7.34604 6.16534L7.19729 5.2729L6.14515 5.44826ZM6.06365 6.87215L5.03751 7.55624L5.62919 8.44377L6.65533 7.75967L6.06365 6.87215ZM6.29389 6.3407C6.32839 6.54772 6.23828 6.75573 6.06365 6.87215L6.65533 7.75967C7.1792 7.41042 7.44955 6.7864 7.34604 6.16534L6.29389 6.3407ZM5.32323 5.09218C5.64525 4.8775 6.08152 5.06651 6.14515 5.44826L7.19729 5.2729C7.00642 4.12765 5.6976 3.56062 4.73155 4.20466L5.32323 5.09218ZM11.6437 11.4959L11.7953 11.2685L10.9079 10.6768L10.7563 10.9041L11.6437 11.4959ZM10.7272 8.80272L9.83467 8.65397L9.65931 9.70612L10.5518 9.85487L10.7272 8.80272ZM8.24035 9.34468L7.55625 10.3708L8.44378 10.9626L9.12786 9.93636L8.24035 9.34468ZM9.83467 8.65397C9.21361 8.55046 8.58959 8.82081 8.24035 9.34468L9.12786 9.93636C9.24428 9.76174 9.45229 9.67163 9.65931 9.70612L9.83467 8.65397ZM11.7953 11.2685C12.4394 10.3024 11.8723 8.99359 10.7272 8.80272L10.5518 9.85487C10.9336 9.9185 11.1225 10.3548 10.9079 10.6768L11.7953 11.2685Z" fill="currentColor"></path>
  </g>
  <defs>
    <clipPath id="clip0_2045_15">
      <rect width="16" height="16" fill="white"></rect>
    </clipPath>
  </defs>
</svg>
